<svg width="17" height="18" viewBox="0 0 17 18" fill="none" xmlns="http://www.w3.org/2000/svg">
<path d="M8.5 12.375C7.65462 12.375 6.84387 12.0194 6.2461 11.3865C5.64832 10.7536 5.3125 9.89511 5.3125 9C5.3125 8.10489 5.64832 7.24645 6.2461 6.61351C6.84387 5.98058 7.65462 5.625 8.5 5.625C9.34538 5.625 10.1561 5.98058 10.7539 6.61351C11.3517 7.24645 11.6875 8.10489 11.6875 9C11.6875 9.89511 11.3517 10.7536 10.7539 11.3865C10.1561 12.0194 9.34538 12.375 8.5 12.375ZM8.5 13.5C9.62717 13.5 10.7082 13.0259 11.5052 12.182C12.3022 11.3381 12.75 10.1935 12.75 9C12.75 7.80653 12.3022 6.66193 11.5052 5.81802C10.7082 4.97411 9.62717 4.5 8.5 4.5C7.37283 4.5 6.29183 4.97411 5.4948 5.81802C4.69777 6.66193 4.25 7.80653 4.25 9C4.25 10.1935 4.69777 11.3381 5.4948 12.182C6.29183 13.0259 7.37283 13.5 8.5 13.5ZM8.5 0C8.6409 0 8.77602 0.0592632 8.87565 0.164752C8.97528 0.270242 9.03125 0.413316 9.03125 0.5625V2.8125C9.03125 2.96168 8.97528 3.10476 8.87565 3.21025C8.77602 3.31574 8.6409 3.375 8.5 3.375C8.3591 3.375 8.22398 3.31574 8.12435 3.21025C8.02472 3.10476 7.96875 2.96168 7.96875 2.8125V0.5625C7.96875 0.413316 8.02472 0.270242 8.12435 0.164752C8.22398 0.0592632 8.3591 0 8.5 0ZM8.5 14.625C8.6409 14.625 8.77602 14.6843 8.87565 14.7898C8.97528 14.8952 9.03125 15.0383 9.03125 15.1875V17.4375C9.03125 17.5867 8.97528 17.7298 8.87565 17.8352C8.77602 17.9407 8.6409 18 8.5 18C8.3591 18 8.22398 17.9407 8.12435 17.8352C8.02472 17.7298 7.96875 17.5867 7.96875 17.4375V15.1875C7.96875 15.0383 8.02472 14.8952 8.12435 14.7898C8.22398 14.6843 8.3591 14.625 8.5 14.625ZM17 9C17 9.14918 16.944 9.29226 16.8444 9.39775C16.7448 9.50324 16.6096 9.5625 16.4687 9.5625H14.3437C14.2029 9.5625 14.0677 9.50324 13.9681 9.39775C13.8685 9.29226 13.8125 9.14918 13.8125 9C13.8125 8.85082 13.8685 8.70774 13.9681 8.60225C14.0677 8.49676 14.2029 8.4375 14.3437 8.4375H16.4687C16.6096 8.4375 16.7448 8.49676 16.8444 8.60225C16.944 8.70774 17 8.85082 17 9ZM3.1875 9C3.1875 9.14918 3.13153 9.29226 3.0319 9.39775C2.93227 9.50324 2.79715 9.5625 2.65625 9.5625H0.53125C0.390354 9.5625 0.255228 9.50324 0.1556 9.39775C0.0559708 9.29226 0 9.14918 0 9C0 8.85082 0.0559708 8.70774 0.1556 8.60225C0.255228 8.49676 0.390354 8.4375 0.53125 8.4375H2.65625C2.79715 8.4375 2.93227 8.49676 3.0319 8.60225C3.13153 8.70774 3.1875 8.85082 3.1875 9ZM14.5106 2.63587C14.6102 2.74136 14.6661 2.88441 14.6661 3.03356C14.6661 3.18272 14.6102 3.32577 14.5106 3.43125L13.0082 5.02313C12.9588 5.07535 12.9002 5.11676 12.8357 5.145C12.7712 5.17323 12.702 5.18774 12.6322 5.18769C12.4912 5.18758 12.3561 5.12818 12.2565 5.02256C12.2071 4.97026 12.168 4.90819 12.1414 4.83989C12.1147 4.77158 12.101 4.69839 12.101 4.62448C12.1011 4.47521 12.1572 4.3321 12.257 4.22662L13.7594 2.63587C13.859 2.53042 13.9941 2.47118 14.135 2.47118C14.2758 2.47118 14.4109 2.53042 14.5106 2.63587ZM4.743 12.978C4.84259 13.0835 4.89854 13.2265 4.89854 13.3757C4.89854 13.5248 4.84259 13.6679 4.743 13.7734L3.24062 15.3641C3.14043 15.4666 3.00624 15.5233 2.86694 15.522C2.72765 15.5207 2.59441 15.4616 2.49591 15.3573C2.39741 15.253 2.34154 15.1119 2.34033 14.9644C2.33912 14.8169 2.39267 14.6748 2.48944 14.5687L3.99181 12.978C4.09144 12.8725 4.22654 12.8133 4.36741 12.8133C4.50827 12.8133 4.64338 12.8725 4.743 12.978ZM14.5106 15.3641C14.4109 15.4696 14.2758 15.5288 14.135 15.5288C13.9941 15.5288 13.859 15.4696 13.7594 15.3641L12.257 13.7734C12.1602 13.6673 12.1067 13.5252 12.1079 13.3777C12.1091 13.2302 12.165 13.0891 12.2635 12.9849C12.362 12.8806 12.4952 12.8214 12.6345 12.8201C12.7738 12.8188 12.908 12.8755 13.0082 12.978L14.5106 14.5687C14.6102 14.6742 14.6661 14.8173 14.6661 14.9664C14.6661 15.1156 14.6102 15.2586 14.5106 15.3641ZM4.743 5.02313C4.64338 5.12858 4.50827 5.18782 4.36741 5.18782C4.22654 5.18782 4.09144 5.12858 3.99181 5.02313L2.48944 3.43125C2.4387 3.37936 2.39823 3.31729 2.37038 3.24867C2.34254 3.18004 2.32789 3.10623 2.32727 3.03154C2.32666 2.95685 2.3401 2.88278 2.36681 2.81365C2.39353 2.74452 2.43297 2.68172 2.48285 2.6289C2.53273 2.57609 2.59205 2.53432 2.65734 2.50604C2.72263 2.47775 2.79258 2.46352 2.86312 2.46417C2.93366 2.46482 3.00337 2.48034 3.06818 2.50982C3.133 2.5393 3.19162 2.58215 3.24062 2.63587L4.743 4.22662C4.79247 4.27888 4.83173 4.34095 4.85851 4.40929C4.88529 4.47763 4.89907 4.55089 4.89907 4.62487C4.89907 4.69886 4.88529 4.77212 4.85851 4.84046C4.83173 4.9088 4.79247 4.97087 4.743 5.02313Z" fill="white"/>
</svg>
